<svg version="1.1" id="Layer_1" xmlns="http://www.w3.org/2000/svg" x="0" y="0" viewBox="0 0 1300 1040" xml:space="preserve"><style>.st0{fill:#f4f4f4}</style><path class="st0" d="M1350.2 288.2c0-17.6-14.3-31.9-31.9-31.9-17.6 0-31.9 14.3-31.9 31.9 0 7.7 2.7 14.7 7.2 20.2-11.4 2.7-20.2 11.9-22.4 23.4h-1.8c-15.1 0-28.2 8.5-34.9 20.9-1.7-.2-3.5-.3-5.3-.3-12.5 0-23.7 5.4-31.4 13.9 0-1.3-.1-2.6-.1-3.8-.2-10.4-.6-20.8-1-31.2-.1-1.2-1.8-1.2-1.8 0-.5 10.4-.9 20.8-1 31.2-.1 3.1-.2 6.2-.2 9.4l-.6.9c-2.1-.5-4.4-.7-6.6-.8-.7-2.8-1.4-5.6-1.9-8.4-1.4-8.3-2-16.7-1.9-25.1 0-1.2-1.7-1.2-1.8 0-.7 6.9-.9 14.6-.3 22.2-3.2-10.1-5.9-20.3-7.7-30.7-4.8-28.2-2.6-56.3 3.9-84.1.3-1.4-1.6-1.8-2.1-.6-9.6 26.2-11.7 55.4-7.7 82.9 2 14 5.7 27.8 10.3 41.2.4 1.1.7 2.1 1.1 3.2-10.7 1.7-19.9 7.7-26 16.1-2.7-1.2-5.6-2.2-8.6-2.8 4-7 10.1-13 10.9-21.8.4-5.2-.7-10.4-3.2-15-2.1-3.9-5.4-9.8-9.7-11.3-.9-.3-2.1.2-2.5 1-2.2 4.4.8 7.7 3.5 11.1 4.6 5.8 7 12.3 5 19.7-1.4 5-6.2 10.2-8.7 15.5-1.6-.2-3.2-.3-4.9-.3h-1.5c1.8-7.9 3.5-15.8 5.6-23.6.3-1.1-1.2-1.4-1.6-.5-3.1 7.8-6.1 16-8.1 24.3-5.6.7-10.9 2.5-15.7 5.1 1.9-8.1 2.9-16.3 3.1-24.6 0-1.5-2.1-1.4-2.3 0-1.2 9.3-3 18.5-5.5 27.5-2.3 1.6-4.4 3.5-6.3 5.5.7-6.7 1.6-13.3 2.6-19.9 2.7-18.5 6.3-36.8 7-55.6 0-.9-1.5-1.2-1.7-.2-3 19.4-7.2 38.5-10.5 57.8-1.4 8.4-2.5 16.9-3.2 25.4-.1.2-.2.4-.4.6-.5-15.9-2-31.7-1.8-47.6.3-17.9 1.6-35.8 3.9-53.6.1-.9-1.5-1.2-1.7-.2-2.9 17.8-4.8 35.8-5.3 53.8-.4 14.7-.7 30.1 1.1 45-8.3-20-14.2-40.7-16.2-62.5-2.2-24.7 0-49.8 6.6-73.6.3-1-1.3-1.4-1.6-.4-14.4 46.8-11.2 101.1 12 144.6-.2.5-.4 1.1-.7 1.6-3-.8-6.1-1.2-9.3-1.4-6.7-9.6-12.9-19.5-16.3-30.8-6.4-21.5-2.5-44.6.8-66.3.2-1.1-1.5-1.6-1.7-.5-4.7 21.8-9.2 44.8-3.6 66.9 2.7 10.4 8.1 19.8 14.1 28.6l1.5 2.1c-4 .4-7.8 1.3-11.3 2.7-1.6-7.3-6.4-14-12.6-18.3-5.5-3.8-15.2-4.2-17-11.7-.9-3.8 2.9-13.8-3.3-14.9-5.7-1-6.3 8.4-6.2 11.9.1 6.1 2.4 12.1 7.8 15.3 5.9 3.5 13.3 2.8 19.1 6.6 4.5 2.9 7.4 7.4 9 12.4-10.2 5-18 14.2-21.3 25.3-6.7 1.1-12.8 3.8-18 7.8-.4-.5-.7-1-1.1-1.5-.8-1.1-1.5-2.1-1.8-2.9-.3-.8-.3-1.1-.3-2.1v-.2.1V441.4c0-.1 0 0 0 0l.1.1s0 .1 0 0 .1-.1.1-.2.1-.3.2-.5c.3-.7 1.2-2 2.6-3.8.3-.4.7-1.1 1.1-1.6l.6-1c.2-.3.4-.7.6-1.1l.6-1.3.6-1.5c.4-1 .6-2.2.9-3.3.2-1.2.4-2.5.4-3.7v-2.6V419.5l-.1-1.1v-.3c0-.1 0-.4-.1-.5l-.2-1.2c-.1-.7-.3-1.6-.5-2.2l-.6-1.8c-.8-2.3-1.9-4.3-2.9-5.7l-.4-.5-.3-.5-.7-.9-1.2-1.5c-.4-.5-.6-.8-.9-1.2-.2-.3-.5-.7-.6-.9-.2-.3-.2-.5-.3-.6 0-.2-.1-.3-.1-.4v-.3-.5-1.4c0-.1.1.1 0 .2 0-.1 0-.1.1-.2 0-.1.1-.2.1-.3.2-.4.6-1.1 1.2-2 .7-.9 1.5-2 2.4-3.6.9-1.5 2-3.7 2.8-6.4.2-.7.3-1.4.5-2.1.1-.7.2-1.5.3-2.2 0-.4.1-.7.1-1.1v-3.1-.8l-.1-1.2v-.6c0-.3-.1-.9-.2-1.3-.1-.9-.3-1.8-.5-2.6-.2-.7-.4-1.4-.6-2-1-2.6-2.2-4.7-3.3-6.1-1.1-1.4-2-2.5-2.7-3.3-.7-.8-1.1-1.5-1.3-1.9-.2-.4-.2-.6-.3-.9V354.7v0c.1-.2.1-.4.2-.7l.5-1c.3-.4.5-.8.8-1.3.4-.5.7-1.1 1.1-1.6l.6-1 .3-.5.3-.6c.9-1.4 1.8-3.5 2.4-5.9.1-.6.3-1.2.4-1.8.1-.6.2-1.3.3-1.9.2-1.3.1-2.5.1-3.7V334v-.7l-.1-.5-.1-1.1v-.3l-.1-.5-.2-1.1c-.1-.7-.3-1.5-.5-2.1-.4-1.1-.7-2.3-1.2-3.2-.2-.5-.5-1-.7-1.4l-.7-1.2c-.2-.4-.5-.7-.7-1l-.7-.9c-.4-.5-.9-1.1-1.2-1.5-1.5-1.7-2.6-2.8-3-3.6-.2-.4-.4-.6-.5-1-.1-.2-.1-.4-.2-.6 0-.1 0-.2-.1-.4v-.9-.6-.1c0-.2 0-.4.1-.6.1-.2.1-.4.1-.6.3-.9.9-2 1.6-3.2.7-1.2 1.5-2.4 2.2-3.9.4-.7.7-1.5 1-2.2.3-.8.5-1.6.7-2.4.2-.8.3-1.5.4-2.2.1-.7.1-1.3.1-1.9v-1.5-1-.8c-.1-2.5-1.5-4.6-3.1-4.5-1.6.1-2.8 2.2-2.7 4.7 0 0 0 .6-.2 1.4-.2.8-.4 1.6-1.4 2.9-.4.7-1.2 1.5-2 2.6-.9 1.1-2 2.5-3.1 4.9-.3.6-.5 1.3-.8 2-.2.7-.4 1.6-.6 2.4-.2.9-.3 2-.4 3-.1.6-.1.8-.1 1.1V313.9c0 .4.1.9.1 1.3 0 .9.2 1.9.4 2.8.1 1 .4 1.9.7 2.8.3 1 .6 1.8 1 2.6 1.5 3.3 3.3 5.2 4.4 6.8.3.4.5.7.8 1.1l.3.5c.1.1.2.3.3.4.1.1.1.3.2.4.1.1.1.2.1.3.1.2.1.3.1.5v.2l.1 1.1v1.2c0 .1-.1.1-.1.2-.1.6-.9 1.9-2.5 4-.4.5-.8 1.2-1.2 1.8-.5.8-.9 1.5-1.4 2.5-.5.9-.9 2.1-1.3 3.3-.2.6-.3 1.3-.5 2-.1.3-.2.6-.2 1-.1.4-.1.8-.2 1.3-.1.4-.1.8-.1 1.3l-.1.6V356.8l.1 1c.1.7.1 1.4.2 2 .4 2.8 1.2 5.7 2.3 7.8 1.1 2.1 2.2 3.7 3.2 4.9.9 1.2 1.7 2.1 2.3 2.8.5.7.7 1.2.8 1.5v-.1.6l.1.6v.8c0 .1-.1.1-.1.2-.1.3-.2.8-.7 1.5-.5.8-1.2 1.8-2 3-.9 1.3-1.9 2.9-2.8 5.1l-.6 1.8c-.2.6-.3 1.3-.5 2l-.2 1c-.1.4-.1.8-.2 1.3-.1.8-.2 1.8-.2 2.5v3.5c.1.7.1 1.3.2 2s.2 1.4.4 2.1c.2 1.4.7 2.7 1.2 3.9.5 1.1 1 2.3 1.5 3.2.5 1 1.1 1.6 1.6 2.4.5.6 1 1.3 1.4 1.7 1.8 2 2.6 3.2 2.8 3.8 0 .1 0 .1.1.2v-.1-.1s0-.1 0 0v.3l.1 1v-.1.4-.2 1c-.1.1 0 .3-.1.5 0 .1 0 .2-.1.3-.1.1-.1.2-.2.4 0 .1-.1.3-.2.4l-.3.5c-.2.4-.4.7-.7 1.1-1 1.7-2.6 3.7-4 7.1-.3.9-.6 1.7-.8 2.7l-.3 1.5c-.1.5-.2 1.2-.2 1.7-.1.6-.1 1.2-.1 1.8v2.9l.1.7c.1.9.2 1.8.3 2.6.2.9.4 1.8.6 2.6.3.8.5 1.6.8 2.4.3.7.6 1.4 1 2 .8 1.4 1.5 2.4 2.2 3.2-5.1 6.7-8.2 15.1-8.2 24.2 0 1.3.1 2.6.2 3.9-17.6 5.6-30.4 22.1-30.4 41.5 0 10.8 3.9 20.6 10.4 28.2-3.5 5.3-5.6 11.6-5.6 18.3 0 6.8 2.1 13.1 5.6 18.4-9.7 5.2-16.7 14.7-18.4 26.1-14.3 2.3-26.4 11.1-33.1 23.2-2.3-3.4-5.5-6.5-8.4-9.5-4.1-4.2-7.6-9-10.1-14.4-2.9-6.2-2.9-12.4-3.3-19.1-.1-1.7-2.3-2.4-3.3-.9-5.4 8.6-1.3 20.2 4 27.8 2.9 4.3 6.6 8 10.5 11.3 2.9 2.5 6.4 5.1 8.8 8.3-1 2.3-1.8 4.7-2.5 7.2-2.3-2.2-5.2-3.8-8.2-5.1-3.7-1.7-7.8-3-10.8-5.9-3.4-3.3-3.2-6.6-3.5-11-.1-1.5-1.5-2.2-2.8-1.6-7 3.1-3.3 13 .8 16.9 6.5 6.1 16.7 5.6 23.5 10.9-.4 2.4-.6 4.8-.6 7.2v.8c-13.9 6.2-23.5 20.1-23.5 36.2 0 5 .9 9.7 2.6 14.1-13.8 3.8-24 16.5-24 31.6 0 2.1.2 4.2.6 6.2-4.4 1.3-8.5 3.3-12.1 5.8-4-10.3-6.7-21.1-7.5-32.8-.1-.8-1.3-.9-1.3 0 0 11.7 1.9 23.8 5.9 35.1-1.1.9-2.1 1.9-3.1 3l-1.5-3c-5.1-11.1-8.3-22.9-9.3-35.1-.1-1.2-1.9-1.2-1.8 0 .5 13.5 3.8 28.2 10 41.1-.4.5-.7 1-1.1 1.5-3.3-4.9-6.3-10.1-8.8-15.7-8.3-18.6-11-39.5-4.7-59.1.3-.9-1.1-1.3-1.4-.4-10.4 26.4-2.9 55.5 12.5 79.1-2.9 5.5-4.6 11.8-4.6 18.5 0 4.4.7 8.7 2.1 12.7-14.2 7.3-24 22-24 39.1 0 11.2 4.2 21.4 11.1 29.2-6.2 6.3-10.1 15-10.1 24.6 0 3.4.5 6.6 1.4 9.7-7 7.2-11.3 17.1-11.3 27.9 0 14.4 7.6 27.1 19.1 34.2-1.6 3.2-2.5 6.9-2.5 10.7 0 6.9 2.9 13.2 7.6 17.6-10.7 7.3-17.7 19.5-17.7 33.4 0 10.5 4 20.1 10.6 27.2v.1c0 26.2 21.3 47.5 47.5 47.5s47.5-21.3 47.5-47.5c0-2.1-.1-4.1-.4-6.2h353c0-3.9 13.3-.7 13.3-4.6L1313 364c10.1-4.7 17-15 17-26.8 0-6.6-2.2-12.8-5.9-17.7 14.8-2.7 26.1-15.7 26.1-31.3zM493.7 828.5c-1 2.6-.2 5.6-1.5 8.2-1.7 3.6-4.7 5.4-8.5 6.2-1.8.4-3.6.8-5.4 1.4 1-4.7 1.9-8.7 3.9-13.3.7-1.6-.4-3.2-2.2-2.9-4.3.7-6.2 5-6.9 8.9-1.3 7.2-.9 12.5-8.1 16.4-6.5 3.5-13 6.6-17.5 11.9-1.2-3.9-2.9-7.6-5.2-10.9 1.2-.9 2.3-1.7 3.4-2.5 5.2-4 9.7-8.8 12.7-14.6 1.9-3.7 3.8-9.2 4.8-14.9 4.9-4.7 13.3-5.6 18.7-10.1 4.6-3.8 10.1-10.2 9.9-16.5 0-1.5-1.9-1.9-2.7-.7-2.5 3.5-3.7 7.5-6.5 10.9-1.2 1.4-2.6 2.7-4.1 3.9-.1-4.5-1.2-9.1-1.8-13.6-.7-4.9-1.3-9.7-3.3-14.2-.7-1.5-2.7-.6-2.8.8-.3 4.6.7 9.1 1.6 13.6 1 4.9 1.5 10.2 3.3 14.9.1.2.2.3.3.5-1.1.7-2.2 1.3-3.3 1.8-3.3 1.6-6.4 2.8-8.8 4.6.4-6.8-1-13.4-5.9-16.9-1.1-.8-2.8 0-3.1 1.3-.9 4.3.3 8.8.9 13.2-1.9-.8-3.8-1.7-5.5-3.2-3.3-3-4.8-7.3-5.8-11.6-.6-2.6-.9-5.1-1-7.6 2.1-1.2 4.8-1.2 7-1.9 2.1-.7 4-1.7 5.6-3.3 2.7-2.5 6.6-7.9 5-11.6-.2-.5-1.1-.9-1.6-.7-4 1.6-4.3 7.8-8 10.4-2.6 1.8-5.6 1.8-8 3.3.3-3.9 1.1-7.7 2.4-11.7.4-1.3-1.4-2.3-2.3-1.4-10.8 11.1-4.2 40.3 12.4 42.8v1.8c-.4 7.1-2.8 14.4-6.9 20.3-2.5 3.6-5.9 6.6-9.3 9.5-3.7-4.5-8.4-8.3-13.7-10.9 1.2-3.9 1.9-8 1.9-12.2 0-17.4-11-32.2-26.4-37.8.4-2.3.6-4.7.6-7.1 0-11.2-4.6-21.2-12-28.4 2-6.5 6-11.7 11.6-16.9.1-.1.2-.2.4-.3 5.7-1.3 11.5-1 17.3-.8.1.2.3.4.6.4 8.1 1.8 8.4 12.9 15.7 16.4 4.8 2.3 11.2 1.7 15.2-1.9.9-.8.2-2.3-1-2.3-3.6 0-7.2 1.1-10.8.2-4.4-1.2-6-5.1-8.3-8.6-1.1-1.6-2.3-3.1-3.7-4.1 3.9-.2 7.7-.7 11.5-2.2 9-3.6 21.7-13.3 23.6-23.3.2-1.2-1.1-2.7-2.3-1.8-4.5 3.3-7.4 8.3-11.4 12.1-1.2 1.1-2.5 2.3-3.8 3.3.9-3.6.5-7.9-.7-11.1-1.1-3-2.8-5.8-4.3-8.6 7.6-3.9 18.2-5.7 20.4-15.2.3-1.4-1.3-2.3-2.3-1.4-4.3 3.8-7 7.7-12.5 10.1-2.5 1.1-4.9 2.1-7 3.6-.4-.8-.7-1.7-1-2.6-2-6.5.6-11.1 2.2-17.1.4-1.4-1.2-2.7-2.5-1.9-6.9 4.3-7.4 14.5-4.7 21.4 3.4 8.7 12.3 17.1 7 26.4-2.4 1.3-4.9 2.4-7.5 3-8.7 1.9-17.5.2-25.8 2.5 4.8-4.3 9.4-8.7 12.5-14.3 3.7-6.8 5-14.6 4.9-22.2-.2-7.5-1.2-17-4.8-23.6-.8-1.5-2.9-.7-3 .8-.9 8.4 1.7 17.2 1.5 25.8-.2 5.6-1.5 10.7-3.8 15.3-1.8-3.9-7.5-6.7-11-8.3-1.6-.7-3.5-1.6-5.4-2.7 3.5-3.3 7.2-7.6 8.3-11.7 1.3-5 .6-12.9-2.2-17.1-.8-1.2-2.9-1.2-3.2.4-1 5.1 1.5 9.9.8 14.9-.5 4.3-4 8.1-6.6 11.9-6.9-4.1-13.7-10-13.4-17 .1-1.6-2-2.4-3.1-1.3-6.5 6.5.9 14.1 6.3 18.3 3.7 2.9 7.9 5.2 12.2 7 2.8 1.2 5.7 1.9 8.4 3.1 3.3 1.5 4.9 3.6 6.5 6.5-1.4 2.1-3 4.1-4.8 6-6.4 6.7-17 15.5-20.1 25.5-6.6-4.8-14.7-7.7-23.4-7.7h-1.4c.2-1.2.3-2.5.3-3.7 0-14.7-11.9-26.5-26.5-26.5-.9 0-1.9.1-2.8.1 2-3.8 3.2-8.2 3.2-12.8 0-11.9-7.6-22-18.2-25.7 4.3-6.8 6.8-14.8 6.8-23.4 0-13.5-6.2-25.6-15.9-33.6 1.2-4.1 1.9-8.4 1.9-12.9 0-1.7-.1-3.3-.3-5 6.3-4 14.8-4.4 21.2-8.5 5.3-3.4 13.7-10.3 13.6-17.2 0-1.1-1.3-2.1-2.3-1.3-3.3 2.4-4.8 6.5-7.6 9.5-3.2 3.4-7 6.1-11.1 8.1-4.7 2.3-10.1 3.4-14.1 6.4-.2-1.1-.4-2.3-.7-3.4 8.2-4.3 14.7-12.5 18.5-20.5 2.8-5.9 4.6-12.3 5.3-18.8.8-6.6 1.9-15.5-1.6-21.5-.7-1.2-2.5-.9-2.9.4-1.6 5.3-.2 11.5-.6 17-.5 6.6-1.7 13.2-4.2 19.4-3.5 8.5-9.1 14.7-15.9 19.9-.6-1.5-1.2-2.9-1.9-4.3 12.7-8.7 19.9-29.2 15.3-43.3-.8-2.5-4.4-2-4.6.6-.5 8.8 1 16.7-2.3 25.3-2.2 5.9-5.7 10.4-10 14.7-1.7-2.9-3.7-5.6-6-8 2.2-5.2 3.4-11 3.4-17 0-13.1-5.7-24.8-14.7-32.9 3.9-6.7 6.2-14.4 6.2-22.7 0-17.8-10.4-33.1-25.4-40.3 1.4-3.6 2.3-7.4 2.6-11.4 20.5-11.4 37.8-29.4 50.8-48.7.6-.9-.8-1.7-1.4-.8-13.6 18.9-30.4 33.3-49.2 46.3 0-2.7-.3-5.3-.8-7.9 15.6-16 29.5-34.6 34.8-56.1.2-.7-.9-1-1.1-.3-7.7 20.5-20.5 36.9-34.6 52.7-.1-.3-.2-.5-.2-.8 5.9-8.3 11-17.2 15.2-26.4 8.4-18.3 13.4-37.7 14.9-57.8.1-1.1-1.6-1.1-1.7 0-2.2 19.1-7.3 38-15.4 55.4-3.9 8.4-8.5 17.6-14.3 25.8-.2-.6-.5-1.1-.8-1.7 8-19.2 12.6-40.5 13.9-60.7.1-.9-1.4-1.1-1.5-.2-2.2 12.6-4.7 25.1-8.2 37.4-1.8 6.6-4.1 13.1-6.5 19.5-1.4-2.2-3.1-4.3-4.9-6.1 3.8-17.6 3.9-36.4 2.3-54.1-.1-.8-1.3-.9-1.3 0 .4 17.5-1.4 34.4-3.7 51.6-3.8-3.2-8.3-5.7-13.1-7.3.1-1.2.2-2.4.2-3.6 0-19-15.4-34.4-34.4-34.4-3.8 0-7.4.6-10.8 1.7 1.7-3.5 2.7-7.4 2.7-11.5 0-2.9-.5-5.7-1.4-8.3 8.1-3.4 15.5-9.9 19.3-17.6 2.2-4.6 2.6-9.2 2.9-14.2.2-3.6.8-7 2.6-10.2 1.4-2.5 3.3-4.5 4.5-7.1.7-1.6-.5-3.5-2.3-3-9.3 2.5-10.9 14.1-10.7 22.2.3 13.4-8 20.2-17.6 26.7-.6-1.1-1.2-2.2-1.9-3.3 2.8-3.4 6-6.5 8.8-10 3.7-4.8 6-10.4 6.7-16.3.9-7-1.2-13-2.8-19.7-2.2-9.1 3.1-13.7 7.2-21 1-1.9-1.1-4.2-3-3-5 3.1-9.3 8.1-10.8 13.9-1.8 7 1.4 13.5 3.5 20 2.9 9.1 1.3 18.2-4.3 25.8-2.2 3-4.5 5.7-6.6 8.6-1.1-1.4-2.4-2.6-3.8-3.8 4-4.4 6.8-10.2 7.7-15.8 1-6.6.1-16.7-6.9-19.4-1.6-.6-2.7 1.1-2.4 2.4.4 2.7 2 4.8 2.9 7.4 1.2 3.6 1.3 7.4.6 11.2-.9 4.5-3 8.2-5.1 11.9-3.1-1.8-6.5-3-10.2-3.4.9-3.6 1.4-7.4 1.4-11.3 0-25.5-20.7-46.2-46.2-46.2-4 0-7.8.5-11.5 1.5 1.1-12.3.5-24.9-1.1-36.7-.1-1-1.8-.8-1.7.2.9 10.5 1 21.1.1 31.6-.2 2-.4 3.9-.6 5.9-.7.2-1.4.5-2.1.8-2.1-8.6-4-17.1-5.2-25.9-2-14.4-2.8-29-2.4-43.6 0-1.1-1.7-1.1-1.8 0-1.3 18.6-.8 38.3 2.8 57.2-3.5-11.1-6.4-22.4-8.4-34-3.7-22.3-4.3-45-2.4-67.5.1-.7-1.2-.9-1.3-.2-5.8 38.4-1.4 80 13.6 116.3-.1 0-.1.1-.2.1-4.4-10.6-14.9-18-27.1-18h-1c-5.4-18.9-22.8-32.8-43.5-32.8-10.2 0-19.6 3.4-27.2 9.1-6.6-6.3-15.5-10.2-25.3-10.2-20.3 0-36.7 16.4-36.7 36.7 0 19.7 15.4 35.7 34.9 36.7l-2.3 742.5h434.2c-7.1 6.8-11.5 16.3-11.5 26.8 0 20.6 16.7 37.3 37.3 37.3 20.6 0 37.3-16.7 37.3-37.3 0-16-10.1-29.6-24.2-34.9 7.2-5.1 11.9-13.5 11.9-23 0-11.8-7.3-21.9-17.6-26.1 7.7-5.5 12.7-14.5 12.7-24.6 0-12.3-7.4-23-18-27.6 3.4-4.5 5.5-10.1 5.5-16.2 0-7.9-3.4-15-8.8-19.9 5.2-7 8.4-15.6 8.4-25 0-2.9-.3-5.7-.9-8.5 2.6-2.9 5.9-5.2 9.5-7 4.6-2.4 9.9-3.6 14.1-6.7 2.5-1.9 4.2-4.3 5.2-7 2.7-1.1 6-1 8.9-1.5 3-.5 5.8-1.9 8-4.1 3.2-3.3 6.6-11.3 2.3-14.9-1.1-1.3-2.5-.9-3 .3z"/></svg>